<?xml version="1.0" encoding="iso-8859-1"?>
<!-- Generator: Adobe Illustrator 19.0.0, SVG Export Plug-In . SVG Version: 6.00 Build 0)  -->
<svg version="1.1" id="Capa_1" xmlns="http://www.w3.org/2000/svg" xmlns:xlink="http://www.w3.org/1999/xlink" x="0px" y="0px"
	 viewBox="0 0 430.24 430.24" style="enable-background:new 0 0 430.24 430.24;" xml:space="preserve">
<g>
	<g>
		<path d="M424.64,380v-78.48c0.637-8.193-5.489-15.352-13.682-15.989c-0.053-0.004-0.105-0.008-0.158-0.011h-30.48v-16.88h6
			c9.601-0.044,17.36-7.839,17.36-17.44V121.12c0-23.04-11.04-47.44-40.88-52.96l-32-64c-0.312-0.549-0.688-1.059-1.12-1.52
			l-0.4-0.56c-0.696-0.674-1.51-1.216-2.4-1.6h-0.64c-0.698-0.232-1.425-0.367-2.16-0.4H282.4c-4.418,0-8,3.582-8,8v59.04h-16v-1.28
			c0-4.418-3.582-8-8-8h-65.44c-4.418,0-8,3.582-8,8v1.28h-16V8c0-4.418-3.582-8-8-8h-41.84c-0.762,0.026-1.516,0.161-2.24,0.4
			h-0.64c-0.89,0.384-1.704,0.926-2.4,1.6v0.48c-0.437,0.486-0.813,1.023-1.12,1.6l-32,63.12C49.2,70,26.8,85.04,26.8,120.8v130.48
			c0,9.601,7.759,17.396,17.36,17.44h6v16.8H19.44c-8.2,0.55-14.401,7.642-13.851,15.842c0.004,0.053,0.007,0.105,0.011,0.158V380
			c-0.637,8.193,5.489,15.352,13.682,15.989c0.053,0.004,0.105,0.008,0.158,0.011h32c4.4,18.32,18.08,34.24,46.56,34.24h234.16
			c19.92,0,40.96-9.28,46.64-34.24h32c8.2-0.55,14.401-7.642,13.851-15.842C424.648,380.105,424.644,380.053,424.64,380z M49.92,380
			H21.6v-78.48h28.32V380z M331.52,41.6l12.8,25.36h-12.8V41.6z M290.4,16h25.12v51.04H290.4V16z M192.96,73.76H242v243.76h-49.04
			V73.76z M236,333.52l-18.48,20.08l-18.4-20.08H236z M119.12,16h25.12v51.04h-25.12V16z M103.12,41.68v25.36h-12.8L103.12,41.68z
			 M43.92,252.64c-0.751,0.001-1.361-0.607-1.362-1.358c0-0.027,0.001-0.055,0.002-0.082V121.12c0-33.2,24-38.16,38.16-38.16h96
			v169.68H43.92z M363.92,301.52v80.64c0,28-20.16,32-32,32H98.08c-28,0-32-20.16-32-32V268.72h110.88v8.8h-17.84
			c-4.418,0-8,3.582-8,8v40c0,4.418,3.582,8,8,8h18.64c0.3,0.722,0.704,1.396,1.2,2l32.48,35.36
			c2.996,3.247,8.057,3.451,11.305,0.455c0.158-0.146,0.31-0.298,0.455-0.455l32.64-35.76c0.496-0.604,0.9-1.278,1.2-2h18.72
			c4.418,0,8-3.582,8-8v-40c0-4.418-3.582-8-8-8H258v-8.48h106.32L363.92,301.52z M176.56,293.52v24h-9.44v-24H176.56z M258,317.52
			l0.4-24h9.84v24H258z M363.68,252.64H258V82.96h91.6c33.2,0,38.16,24,38.16,38.16v130.16c0.044,0.75-0.528,1.393-1.278,1.438
			c-0.027,0.002-0.055,0.002-0.082,0.002L363.68,252.64z M408.24,380h-27.92v-78.48h28.32L408.24,380z"/>
	</g>
</g>
<g>
	<g>
		<path d="M217.44,264.56c-4.418,0-8,3.582-8,8v20.64c0,4.418,3.582,8,8,8s8-3.582,8-8v-20.64
			C225.44,268.142,221.858,264.56,217.44,264.56z"/>
	</g>
</g>
<g>
</g>
<g>
</g>
<g>
</g>
<g>
</g>
<g>
</g>
<g>
</g>
<g>
</g>
<g>
</g>
<g>
</g>
<g>
</g>
<g>
</g>
<g>
</g>
<g>
</g>
<g>
</g>
<g>
</g>
</svg>
