<?xml version="1.0" encoding="iso-8859-1"?>
<!-- Generator: Adobe Illustrator 19.0.0, SVG Export Plug-In . SVG Version: 6.00 Build 0)  -->
<svg version="1.1" id="Capa_1" xmlns="http://www.w3.org/2000/svg" xmlns:xlink="http://www.w3.org/1999/xlink" x="0px" y="0px"
	 viewBox="0 0 439.33 439.33" style="enable-background:new 0 0 439.33 439.33;" xml:space="preserve">
<g>
	<g>
		<path d="M219.588,309.5c-25.493,0-46.16,20.667-46.16,46.16v60.24c0,4.418,3.582,8,8,8h76.24c4.418,0,8-3.582,8-8v-60.24
			C265.668,330.198,245.051,309.544,219.588,309.5z M190.548,407.9c4.497-16.038,21.144-25.394,37.183-20.897
			c10.135,2.842,18.055,10.762,20.897,20.897H190.548z M249.748,355.66v25.36c-17.275-15.011-42.965-15.011-60.24,0v-25.36
			c-0.858-16.635,11.932-30.815,28.567-31.673c16.635-0.858,30.815,11.932,31.673,28.567
			C249.802,353.589,249.802,354.626,249.748,355.66z"/>
	</g>
</g>
<g>
	<g>
		<path d="M412.228,383.26c-0.226-0.451-0.494-0.879-0.8-1.28c-0.282-0.573-0.631-1.11-1.04-1.6l-4.48-3.92l-53.92-47.44
			c-1.199-1.053-2.455-2.041-3.76-2.96c40-101.92-24-164-25.04-164.64c-3.232-3.012-8.295-2.834-11.307,0.399
			c-2.213,2.375-2.772,5.852-1.413,8.801c7.966,15.548,4.706,34.49-8,46.48c-5.004,6.087-13.187,8.551-20.72,6.24
			c-7.44-4-9.92-18.32-6.56-38.32c1.52-8.8,2.96-16.88,4.24-24.48c14.64-82.72,17.68-99.92-49.52-158.4
			c-3.236-3.008-8.298-2.823-11.306,0.413c-2.294,2.468-2.796,6.11-1.254,9.107c0,0.64,35.52,66.08,0.96,105.76
			c-9.68,11.12-14.4,10.8-15.28,10.64c-2.08-0.4-4.4-3.76-6.08-8.72c-4.8-14.32-2.64-35.2,1.36-40
			c2.868-3.361,2.468-8.411-0.894-11.278c-1.96-1.672-4.605-2.298-7.106-1.682c-15.383,6.014-27.658,18.029-34,33.28
			c-14.24,31.12-9.28,74.96,14.8,130.4c1.84,4.32,4.32,12.08,0,16c-6.367,3.963-14.433,3.963-20.8,0
			c-6.48-3.04-27.52-16-24.72-54.24c0.305-4.408-3.021-8.228-7.429-8.533c-2.213-0.153-4.39,0.619-6.011,2.133
			c-0.72,0.64-69.36,66.96-22.96,141.84l-1.12,0.88l-54.16,48l-4.48,3.92c-0.409,0.49-0.758,1.027-1.04,1.6
			c-0.306,0.401-0.574,0.829-0.8,1.28c-0.184,1.147-0.37,2.294-0.56,3.44c0.136,0.751,0.378,1.478,0.72,2.16
			c-0.026,0.373-0.026,0.747,0,1.12c0.614,1.058,1.462,1.961,2.48,2.64l67.6,45.12c2.175,1.454,4.923,1.753,7.36,0.8h0.48
			c0.76-0.342,1.462-0.801,2.08-1.36l43.76-41.2c18.424-17.62,19.076-46.84,1.456-65.264c-8.731-9.13-20.823-14.282-33.456-14.256
			c-5.75,0.015-11.447,1.1-16.8,3.2c-27.68-44.8-8-85.6,7.52-106.72c2.192,20.721,14.672,38.945,33.2,48.48
			c12.315,7.044,27.692,5.805,38.72-3.12c3.84-3.76,11.84-14.56,3.36-34.08c-27.44-63.2-23.36-98.48-15.12-116.88
			c2.064-4.566,4.756-8.821,8-12.64c-0.754,10.201,0.385,20.453,3.36,30.24c4.64,14,12.48,18.24,18.16,19.36
			c9.36,1.84,19.68-3.44,30.48-16c24.4-28.32,21.2-64.56,13.92-90.72c34.16,34.64,30.96,53.04,19.04,120
			c-1.36,7.6-2.8,16-4.24,24.56c-6.4,37.6,6.48,50.64,14.72,55.04c11.6,6.24,27.04,2.8,39.28-8.64
			c8.597-8.374,14.216-19.332,16-31.2c13.2,24,25.36,65.52,3.84,121.12c-24.207-7.709-50.08,5.666-57.789,29.873
			c-5.402,16.965-0.53,35.524,12.509,47.647l43.92,41.52c0.72,0.682,1.561,1.225,2.48,1.6c2.437,0.953,5.185,0.654,7.36-0.8
			l67.6-45.12c1.018-0.679,1.866-1.582,2.48-2.64c0.028-0.373,0.028-0.747,0-1.12c0.342-0.682,0.584-1.409,0.72-2.16
			c0.048-0.506,0.048-1.014,0-1.52C412.326,384.704,412.326,383.977,412.228,383.26z M100.948,420.86L100.948,420.86l-25.36-17.2
			l-27.68-18.48c7.939-6.217,17.609-9.822,27.68-10.32c8.348,0.175,16.366,3.291,22.64,8.8c5.088,4.398,8.009,10.794,8,17.52
			C106.625,408.137,104.774,415.036,100.948,420.86z M119.748,332.06v0.08c16.657,0,30.16,13.503,30.16,30.16
			c0,8.254-3.383,16.148-9.36,21.84l-17.6,16.8c-0.236-11.355-5.406-22.044-14.16-29.28c-8.668-7.415-19.565-11.723-30.96-12.24
			l21.2-18.64C104.544,335.298,111.973,332.172,119.748,332.06z M330.388,371.66c-8.724,7.251-13.864,17.938-14.08,29.28l-17.6-16.8
			c-12.522-10.984-13.769-30.039-2.785-42.562c10.984-12.522,30.039-13.769,42.562-2.785c0.69,0.605,1.352,1.241,1.984,1.907
			l20.96,18.4C349.966,359.69,339.035,364.113,330.388,371.66z M363.588,403.66l-25.28,16.88c-4.051-5.746-6.129-12.652-5.92-19.68
			c-0.009-6.726,2.912-13.122,8-17.52c6.466-5.517,14.7-8.527,23.2-8.48c10.191,0.535,19.957,4.257,27.92,10.64L363.588,403.66z"/>
	</g>
</g>
<g>
</g>
<g>
</g>
<g>
</g>
<g>
</g>
<g>
</g>
<g>
</g>
<g>
</g>
<g>
</g>
<g>
</g>
<g>
</g>
<g>
</g>
<g>
</g>
<g>
</g>
<g>
</g>
<g>
</g>
</svg>
