<?xml version="1.0" encoding="iso-8859-1"?>
<!-- Generator: Adobe Illustrator 19.0.0, SVG Export Plug-In . SVG Version: 6.00 Build 0)  -->
<svg version="1.1" id="Capa_1" xmlns="http://www.w3.org/2000/svg" xmlns:xlink="http://www.w3.org/1999/xlink" x="0px" y="0px"
	 viewBox="0 0 450.59 450.59" style="enable-background:new 0 0 450.59 450.59;" xml:space="preserve">
<g>
	<g>
		<path d="M444.175,293.175c14-43.84,2.48-93.6-9.76-128.08v0c-0.08-1.334-0.492-2.627-1.2-3.76c-4.16-11.2-8-20.4-11.28-27.04
			c6.038-2.404,10.021-8.222,10.08-14.72v-66.64c0-8.837-7.163-16-16-16h-196.56c-4.418-0.008-8.006,3.567-8.014,7.986
			c0,0.165,0.005,0.33,0.014,0.494c2.72,48-0.8,80.56-10.96,103.52c-0.202,0.228-0.389,0.469-0.56,0.72
			c-0.03,0.399-0.03,0.801,0,1.2c-3.878,8.358-9.123,16.009-15.52,22.64l-0.72,0.48c0,0,0,0,0,0.56
			c-9.379,8.945-20.196,16.247-32,21.6c-20.566,9.125-41.672,16.98-63.2,23.52l-4.08,1.36c-74.8,24.8-84.56,69.76-84.4,92.32
			c-0.02,0.32-0.02,0.64,0,0.96v57.12c0.012,2.78,1.465,5.354,3.84,6.8c18.332,11.154,38.12,19.715,58.8,25.44
			c4.253,1.196,8.671-1.282,9.867-5.536c0.225-0.801,0.324-1.633,0.293-2.464v-1.84h11.76v8c-0.051,3.963,2.808,7.366,6.72,8
			c6.96,1.12,13.92,2,20.72,2.56c2.228,0.187,4.433-0.567,6.08-2.08c1.646-1.527,2.575-3.675,2.56-5.92v-10.08h11.76v11.36
			c0,4.418,3.582,8,8,8c6.72,0,13.44,0,20.64-0.96c4.167-0.334,7.373-3.82,7.36-8v-10.4h11.76v7.04
			c-0.057,4.418,3.478,8.046,7.896,8.103c0.463,0.006,0.926-0.028,1.384-0.103c14.685-2.249,29.16-5.7,43.28-10.32l1.28-0.56
			c56-32,91.52-5.68,92.96-4.56c1.396,1.084,3.112,1.674,4.88,1.68h9.92c4.418,0,8-3.582,8-8v-13.52h11.44v13.36
			c0,4.418,3.582,8,8,8h25.76c4.418,0,8-3.582,8-8v-13.36h11.84v13.36c0,4.418,3.582,8,8,8h19.76c4.418,0,8-3.582,8-8v-86.24
			C450.653,297.313,447.96,293.947,444.175,293.175z M254.335,53.095h6.56h154.72v66.24h-161.28V53.095z M153.775,212.615l0.08,0.48
			c6.558,5.324,12.61,11.243,18.08,17.68c-1.451,2.413-2.199,5.184-2.16,8c-0.055,8.439,6.742,15.324,15.18,15.379
			c8.439,0.055,15.324-6.742,15.379-15.18c0.052-7.95-6.001-14.611-13.919-15.319c-5.06-6.899-10.825-13.254-17.2-18.96
			c7.149-4.069,13.875-8.839,20.08-14.24c7.759,7.279,14.978,15.113,21.6,23.44c-2.783,7.967,1.419,16.681,9.385,19.465
			c7.967,2.783,16.681-1.419,19.465-9.385c2.783-7.967-1.419-16.681-9.385-19.465c-1.653-0.578-3.393-0.867-5.145-0.855h-1.92
			c-7.017-8.834-14.663-17.149-22.88-24.88c3.813-4.695,7.187-9.729,10.08-15.04c12.385,6.447,24.355,13.661,35.84,21.6
			c-0.079,8.527,6.77,15.503,15.297,15.582c8.527,0.079,15.503-6.77,15.582-15.297s-6.77-15.503-15.297-15.582
			c-2.435-0.023-4.842,0.531-7.022,1.617c-12.089-8.184-24.673-15.611-37.68-22.24c8.72-23.2,12.48-54,10.72-96h10.48v66.24
			c0,8.837,7.163,16,16,16h149.92c2.08,4.24,5.6,11.6,9.44,21.2h-3.28c-48.6,0.351-87.713,40.033-87.362,88.633
			c0.199,27.617,13.352,53.538,35.522,70.007c-64.72,17.04-162.08,37.28-244,32c15.12-60.4-2.96-97.6-14.72-113.92
			C118.248,227.568,136.221,220.571,153.775,212.615z M83.855,238.135c8.64,10.16,31.2,44.32,14.64,107.12
			c-28.826-2.266-56.823-10.725-82.08-24.8c-0.287-1.828-0.474-3.671-0.56-5.52v-0.56C15.215,297.335,21.615,260.455,83.855,238.135
			z M430.815,379.415v-13.36c0-4.418-3.582-8-8-8h-27.76c-4.418,0-8,3.582-8,8v13.36h-9.84v-13.36c0-4.418-3.582-8-8-8h-27.6
			c-4.418,0-8,3.582-8,8v13.04c-10.88-6.8-50.64-26.56-107.04,4.96c-10.034,3.312-20.268,5.984-30.64,8v-5.52c0-4.418-3.582-8-8-8
			h-27.6c-4.418,0-8,3.582-8,8v10.96h-4.08v-11.2c0-4.418-3.582-8-8-8h-27.76c-4.418,0-8,3.582-8,8v9.52l-4.08-0.56v-8.96
			c0-4.418-3.582-8-8-8h-27.76c-4.069-0.029-7.512,3-8,7.04c-14.199-4.675-27.872-10.815-40.8-18.32v-28.64
			c34.88,18.48,80,25.44,128,25.44c127.52,0,273.44-48.8,290.64-54.64l0.08,70.24H430.815z M426.895,295.015
			c-6.8,2.24-23.52,8-46.64,14.16c-35.793-17.323-50.766-60.382-33.443-96.175c11.85-24.484,36.486-40.2,63.683-40.625
			c3.154-0.044,6.307,0.116,9.44,0.48l0.08,0.24C431.775,207.015,442.335,255.415,426.895,295.015z"/>
	</g>
</g>
<g>
	<g>
		<path d="M285.135,62.775c-12.857,0-23.28,10.423-23.28,23.28c0.044,12.839,10.441,23.236,23.28,23.28
			c12.857,0,23.28-10.423,23.28-23.28C308.415,73.198,297.993,62.775,285.135,62.775z M285.135,93.335
			c-4.021,0-7.28-3.259-7.28-7.28c0-4.021,3.259-7.28,7.28-7.28s7.28,3.259,7.28,7.28C292.415,90.076,289.156,93.335,285.135,93.335
			z"/>
	</g>
</g>
<g>
</g>
<g>
</g>
<g>
</g>
<g>
</g>
<g>
</g>
<g>
</g>
<g>
</g>
<g>
</g>
<g>
</g>
<g>
</g>
<g>
</g>
<g>
</g>
<g>
</g>
<g>
</g>
<g>
</g>
</svg>
