<?xml version="1.0" encoding="iso-8859-1"?>
<!-- Generator: Adobe Illustrator 19.0.0, SVG Export Plug-In . SVG Version: 6.00 Build 0)  -->
<svg version="1.1" id="Capa_1" xmlns="http://www.w3.org/2000/svg" xmlns:xlink="http://www.w3.org/1999/xlink" x="0px" y="0px"
	 viewBox="0 0 431.861 431.861" style="enable-background:new 0 0 431.861 431.861;" xml:space="preserve">
<g>
	<g>
		<path d="M417.526,384.88V115.76c0.205-4.414-3.207-8.158-7.62-8.363c-0.941-0.044-1.882,0.079-2.78,0.363v0.4l-36,11.28
			c3.769-10.09,6.007-20.688,6.64-31.44c0-48.601-39.399-88-88-88c-48.601,0-88,39.399-88,88c0.562,10.249,2.637,20.359,6.16,30
			l-59.52-21.28c-0.691-0.085-1.389-0.085-2.08,0h-0.64c-0.959,0.017-1.908,0.207-2.8,0.56l-123.44,48
			c-2.847,1.083-4.832,3.688-5.12,6.72v128.64v140.8c0.013,4.418,3.605,7.989,8.024,7.976c0.977-0.003,1.945-0.185,2.856-0.536
			l120.64-46.72l137.6,49.28c1.661,0.561,3.459,0.561,5.12,0l123.36-38.56C415.392,391.794,417.692,388.509,417.526,384.88z
			 M289.766,16c39.765,0,72,32.235,72,72c0,31.28-46.96,117.68-72,160c-25.04-42.64-72-129.12-72-160
			C217.766,48.235,250.001,16,289.766,16z M401.766,379.36l-107.68,33.68V352c0-4.418-3.582-8-8-8s-8,3.582-8,8v60.48L153.766,368
			v-51.2c0-4.418-3.582-8-8-8s-8,3.582-8,8V368l-107.44,41.84V286.16l39.52-16c4.229-1.28,6.619-5.746,5.339-9.975
			c-1.28-4.229-5.746-6.619-9.975-5.339c-0.442,0.134-0.872,0.306-1.285,0.514l-33.6,13.52V157.52l107.44-41.6v24
			c0,4.418,3.582,8,8,8s8-3.582,8-8V115.6l61.36,22c19.678,44.969,42.314,88.585,67.76,130.56c2.291,3.778,7.211,4.982,10.989,2.691
			c1.1-0.667,2.023-1.591,2.691-2.691c25.321-41.729,47.876-85.076,67.52-129.76l37.44-11.76l0.24,131.12l-40.56,9.84
			c-4.418,0.53-7.57,4.542-7.04,8.96s4.542,7.57,8.96,7.04c0.638,0.077,1.282,0.077,1.92,0l36.72-8.96V379.36z"/>
	</g>
</g>
<g>
	<g>
		<path d="M289.446,41.52c-25.67,0-46.48,20.81-46.48,46.48c0,25.67,20.81,46.48,46.48,46.48
			c25.652-0.044,46.436-20.828,46.48-46.48C335.926,62.33,315.116,41.52,289.446,41.52z M289.446,118.48
			c-16.69-0.218-30.118-13.788-30.16-30.48h-0.32c0-16.834,13.646-30.48,30.48-30.48s30.48,13.646,30.48,30.48
			C319.926,104.834,306.28,118.48,289.446,118.48z"/>
	</g>
</g>
<g>
	<g>
		<path d="M184.806,241.28v0.24l-38.72-16.72c-1.971-0.822-4.189-0.822-6.16,0l-32.72,13.2c-4.109,1.657-6.097,6.331-4.44,10.44
			s6.331,6.097,10.44,4.44l29.6-11.92l35.6,15.04c1.011,0.431,2.101,0.649,3.2,0.64c4.418,0.036,8.029-3.516,8.065-7.935
			C189.697,245.475,187.778,242.546,184.806,241.28z"/>
	</g>
</g>
<g>
	<g>
		<path d="M315.605,287.033c-1.192-3.854-5.067-6.217-9.039-5.513l0.08-0.64l-19.84,4.8l-33.6-14.56
			c-4.065-1.767-8.793,0.095-10.56,4.16c-1.767,4.065,0.095,8.793,4.16,10.56l36,16c1.011,0.431,2.101,0.649,3.2,0.64h1.92
			l22.4-5.44C314.547,295.734,316.91,291.254,315.605,287.033z"/>
	</g>
</g>
<g>
</g>
<g>
</g>
<g>
</g>
<g>
</g>
<g>
</g>
<g>
</g>
<g>
</g>
<g>
</g>
<g>
</g>
<g>
</g>
<g>
</g>
<g>
</g>
<g>
</g>
<g>
</g>
<g>
</g>
</svg>
